<svg id="visual" viewBox="0 0 1287 600" width="1287" height="600" xmlns="http://www.w3.org/2000/svg" xmlns:xlink="http://www.w3.org/1999/xlink" version="1.1"><rect x="0" y="0" width="1287" height="600" fill="#051c3f"></rect><path d="M0 27L12.7 26.8C25.3 26.7 50.7 26.3 75.8 26.8C101 27.3 126 28.7 151.2 30.5C176.3 32.3 201.7 34.7 227 47.2C252.3 59.7 277.7 82.3 303 90.2C328.3 98 353.7 91 378.8 89C404 87 429 90 454.2 82C479.3 74 504.7 55 530 46.8C555.3 38.7 580.7 41.3 605.8 54.7C631 68 656 92 681.2 98C706.3 104 731.7 92 757 91.3C782.3 90.7 807.7 101.3 832.8 112C858 122.7 883 133.3 908.2 132.8C933.3 132.3 958.7 120.7 984 104.7C1009.3 88.7 1034.7 68.3 1060 65.3C1085.3 62.3 1110.7 76.7 1135.8 85.3C1161 94 1186 97 1211.2 95.3C1236.3 93.7 1261.7 87.3 1274.3 84.2L1287 81L1287 0L1274.3 0C1261.7 0 1236.3 0 1211.2 0C1186 0 1161 0 1135.8 0C1110.7 0 1085.3 0 1060 0C1034.7 0 1009.3 0 984 0C958.7 0 933.3 0 908.2 0C883 0 858 0 832.8 0C807.7 0 782.3 0 757 0C731.7 0 706.3 0 681.2 0C656 0 631 0 605.8 0C580.7 0 555.3 0 530 0C504.7 0 479.3 0 454.2 0C429 0 404 0 378.8 0C353.7 0 328.3 0 303 0C277.7 0 252.3 0 227 0C201.7 0 176.3 0 151.2 0C126 0 101 0 75.8 0C50.7 0 25.3 0 12.7 0L0 0Z" fill="#ffffff" stroke-linecap="round" stroke-linejoin="miter"></path></svg>